<svg width="1024" height="1024" viewBox="0 0 1024 1024" fill="none" xmlns="http://www.w3.org/2000/svg">
<path d="M862.001 343.896V729.913L527.7 922.922L193.4 729.913V697.252L496.299 872.132L830.6 679.123V325.768L862.001 343.896Z" fill="black"/>
<path d="M830.601 293.106V679.123L496.3 872.132L162 679.123V293.106L496.3 100.099L830.601 293.106ZM648.75 300.725C648.541 300.725 562.808 300.808 505.007 369.185C469.198 411.544 466.27 474.447 469.24 516.253C419.721 466.546 374.291 436.728 348.463 424.748L329.229 466.217C365.197 482.9 462.598 551.038 540.076 683.073L559.789 671.505L579.502 659.938C555.841 619.616 530.316 584.7 504.896 554.93C533.744 547.1 577.934 526.58 611.414 472.8C665.551 385.837 648.75 300.725 648.75 300.725Z" fill="#F7CE1A"/>
</svg>
