<svg width="102" height="119" viewBox="0 0 102 119" fill="none" xmlns="http://www.w3.org/2000/svg">
<path d="M101.237 35.2588V91.0859L52.8889 119L4.5412 91.0859V86.3623L48.3478 111.654L96.6955 83.7412V32.6377L101.237 35.2588Z" fill="black"/>
<path d="M96.6953 27.9141V83.7412L48.3477 111.654L0 83.7412V27.9141L48.3477 0L96.6953 27.9141ZM70.3955 29.0156C70.3543 29.0157 57.9622 29.0316 49.6064 38.916C44.4262 45.0442 44.0053 54.1453 44.4355 60.1914C37.2725 53.0003 30.7028 48.684 26.9668 46.9512L24.1855 52.9492C29.3877 55.3622 43.4737 65.2165 54.6787 84.3115L57.5303 82.6387L60.3809 80.9658C56.9584 75.1335 53.2649 70.0843 49.5879 65.7783C53.76 64.6464 60.1531 61.6808 64.9961 53.9014C72.8014 41.3634 70.4103 29.0913 70.3955 29.0156Z" fill="#F7CE1A"/>
</svg>
